<?xml version="1.0" standalone="no"?>
<!DOCTYPE svg PUBLIC "-//W3C//DTD SVG 20010904//EN"
 "http://www.w3.org/TR/2001/REC-SVG-20010904/DTD/svg10.dtd">
<svg version="1.0" xmlns="http://www.w3.org/2000/svg"
 width="966.000000pt" height="966.000000pt" viewBox="0 0 966.000000 966.000000"
 preserveAspectRatio="xMidYMid meet">
<metadata>
Created by potrace 1.11, written by Peter Selinger 2001-2013
</metadata>
<g transform="translate(0.000000,966.000000) scale(0.100000,-0.100000)"
fill="#000000" stroke="none">
<path d="M5687 7304 c-1 -1 -33 -5 -72 -8 -183 -18 -384 -75 -562 -161 -198
-95 -334 -193 -494 -358 l-97 -98 -48 24 c-122 61 -336 127 -459 142 -27 3
-66 8 -85 11 -42 6 -220 6 -275 0 -116 -12 -159 -20 -260 -46 -498 -131 -901
-503 -1073 -990 -29 -82 -75 -280 -67 -288 2 -2 81 -4 177 -4 136 0 174 2 179
13 4 8 17 50 29 94 87 318 315 594 616 743 257 127 535 159 813 92 130 -32
205 -65 501 -222 19 -10 38 -18 42 -18 4 0 53 55 109 123 223 267 381 393 629
500 83 35 225 72 327 84 112 14 342 7 448 -12 288 -54 489 -156 675 -344 177
-177 294 -393 369 -681 29 -110 54 -268 55 -347 0 -16 6 -23 21 -24 11 0 89
-1 172 -2 l153 -2 0 56 c0 99 -28 281 -66 434 -131 524 -416 908 -820 1109
-99 49 -251 107 -314 120 -42 8 -71 15 -88 20 -68 20 -269 39 -420 40 -62 1
-114 1 -115 0z"/>
<path d="M4536 5833 c-231 -29 -408 -112 -556 -262 -81 -81 -132 -153 -172
-241 -33 -71 -64 -165 -72 -212 -3 -21 -9 -55 -12 -75 -20 -120 -5 -331 31
-445 109 -348 372 -573 740 -636 54 -9 299 -9 353 0 205 35 376 121 514 260
229 228 316 577 233 933 -47 203 -196 416 -370 530 -95 62 -266 130 -355 140
-8 1 -35 5 -60 9 -84 12 -175 12 -274 -1z m324 -362 c172 -54 306 -183 360
-345 30 -91 32 -101 35 -216 6 -187 -48 -334 -165 -451 -104 -104 -233 -158
-394 -164 -140 -6 -280 35 -384 110 -147 107 -222 260 -227 466 -2 64 2 133
11 172 45 216 203 382 416 436 97 25 256 22 348 -8z"/>
<path d="M772 5794 c-355 -64 -615 -292 -716 -624 -35 -117 -41 -165 -41 -315
1 -208 44 -366 143 -525 58 -94 188 -223 278 -276 64 -38 184 -91 223 -99 9
-2 36 -8 61 -14 216 -53 477 -23 681 79 77 39 204 134 248 185 78 92 178 256
167 274 -3 5 -23 12 -43 16 -21 5 -42 9 -48 11 -5 2 -67 18 -136 37 l-126 34
-31 -52 c-65 -108 -181 -198 -307 -238 -89 -28 -283 -31 -355 -5 -160 58 -253
136 -320 268 -75 149 -89 309 -46 520 9 42 84 183 116 217 107 116 266 182
429 177 135 -4 218 -28 317 -93 54 -34 78 -58 156 -150 15 -18 32 -30 38 -26
5 3 83 26 172 51 89 24 163 46 165 47 1 2 -11 29 -27 60 -119 230 -346 389
-630 442 -70 13 -295 13 -368 -1z"/>
<path d="M6028 5772 l-46 -3 3 -582 c1 -320 5 -602 9 -626 28 -207 137 -403
280 -505 61 -44 176 -100 227 -110 13 -3 51 -10 84 -17 98 -19 286 -15 387 9
304 74 481 271 538 598 14 83 18 166 18 457 l1 354 -180 1 c-130 0 -179 -3
-179 -11 -1 -7 -2 -169 -4 -362 -2 -192 -6 -363 -10 -380 -36 -161 -97 -250
-209 -301 -58 -27 -70 -29 -187 -29 -110 0 -132 3 -180 24 -98 43 -170 129
-200 241 -7 25 -15 54 -18 65 -3 11 -7 263 -8 560 -2 297 -3 558 -4 580 l0 40
-138 0 c-75 0 -158 -1 -184 -3z"/>
<path d="M7995 5772 l-30 -3 0 -910 0 -910 455 4 c250 2 469 7 485 11 300 72
478 184 610 386 157 239 185 581 73 870 -78 200 -258 381 -465 470 -84 35
-208 67 -295 76 -65 6 -777 12 -833 6z m820 -351 c242 -45 405 -194 462 -422
3 -13 7 -73 9 -132 4 -176 -40 -301 -146 -407 -83 -84 -184 -134 -320 -160
-48 -9 -181 -13 -422 -11 l-68 1 0 569 c0 419 3 570 11 573 26 9 418 0 474
-11z"/>
<path d="M2191 4649 l0 -699 615 0 614 0 0 170 0 169 -426 0 c-234 0 -429 3
-433 6 -3 4 -7 239 -7 523 -1 284 -2 520 -3 524 0 4 -82 6 -180 6 l-179 -1 -1
-698z"/>
<path d="M1730 3289 c-119 -18 -193 -67 -235 -155 -23 -48 -28 -142 -11 -197
34 -112 122 -170 321 -212 132 -28 165 -48 165 -97 0 -38 -39 -74 -88 -81 -48
-8 -118 1 -153 18 -26 14 -64 54 -71 77 -5 13 -208 -41 -208 -56 1 -21 37 -91
61 -116 49 -52 77 -71 131 -90 75 -26 99 -30 203 -31 228 -1 352 103 348 293
-3 140 -84 222 -263 263 -198 45 -230 62 -230 122 0 24 7 37 27 50 65 43 184
28 223 -28 8 -12 20 -27 25 -35 8 -11 26 -9 105 12 52 14 99 29 103 33 9 9
-34 95 -66 130 -75 81 -239 124 -387 100z"/>
<path d="M6555 3292 c-49 -5 -127 -32 -182 -64 -181 -102 -265 -354 -192 -575
61 -185 240 -305 452 -303 145 1 260 45 347 132 112 113 159 281 124 447 -36
169 -146 292 -307 343 -58 18 -175 28 -242 20z m187 -225 c48 -20 96 -64 121
-111 32 -61 32 -203 -1 -266 -54 -102 -161 -150 -282 -126 -133 27 -210 131
-202 276 7 153 126 259 274 245 32 -2 73 -11 90 -18z"/>
<path d="M2439 3276 c-1 0 -2 -47 -3 -104 l-2 -103 138 3 138 3 1 -30 c0 -16
0 -175 1 -352 0 -178 3 -324 7 -324 39 -7 211 -3 212 6 0 5 0 164 1 353 l0
342 139 0 139 0 1 35 c0 19 1 51 1 70 0 19 -1 50 -1 69 l-1 34 -385 0 c-212
-1 -386 -1 -386 -2z"/>
<path d="M3782 3267 c-9 -13 -87 -211 -234 -597 -22 -58 -44 -114 -49 -125 -5
-11 -20 -49 -33 -85 -13 -36 -26 -72 -30 -80 -6 -13 9 -15 108 -15 63 0 117 2
119 5 3 3 16 36 30 75 l25 70 189 0 190 0 26 -75 27 -76 117 1 c68 1 117 5
116 11 -3 13 -341 883 -347 892 -8 14 -243 13 -254 -1z m187 -402 c28 -76 49
-141 46 -143 -5 -6 -214 -6 -219 -1 -2 2 22 72 53 156 31 83 59 146 63 140 3
-7 29 -75 57 -152z"/>
<path d="M4609 3261 c-1 -30 -1 -146 0 -168 1 -23 3 -23 139 -23 l137 0 0
-349 c0 -304 2 -350 15 -353 8 -2 58 -4 110 -3 l95 0 0 352 0 352 140 3 140 3
0 100 0 100 -387 1 c-351 1 -388 0 -389 -15z"/>
<path d="M5662 2822 l3 -457 108 0 107 0 -2 455 -3 455 -108 2 -107 1 2 -456z"/>
<path d="M7389 3226 c0 -62 0 -813 0 -841 1 -19 8 -20 111 -20 l111 -1 -3 263
c-2 171 1 263 7 263 6 -1 46 -53 90 -116 44 -63 128 -181 186 -262 l105 -147
112 0 112 0 0 456 0 457 -107 -2 -108 -1 -5 -262 -5 -261 -190 261 -191 262
-112 1 -112 1 -1 -51z"/>
</g>
</svg>
