<?xml version="1.0" encoding="utf-8"?>
<!-- Generator: Adobe Illustrator 19.2.1, SVG Export Plug-In . SVG Version: 6.00 Build 0)  -->
<svg version="1.1" id="レイヤー_1" xmlns="http://www.w3.org/2000/svg" xmlns:xlink="http://www.w3.org/1999/xlink" x="0px"
	 y="0px" viewBox="0 0 12.9 18.6" style="enable-background:new 0 0 12.9 18.6;" xml:space="preserve">
<style type="text/css">
	.st0{fill:#1E2B68;}
</style>
<path id="XMLID_1_" class="st0" d="M2,0.3c-1,0.5-1.9,1.8-2,3.3C-0.1,5,0.1,7.9,2.3,11.9c2.2,4,4.6,5.6,5.8,6.3
	c1.3,0.7,2.9,0.6,3.8,0c0.9-0.6,1-0.9,0.9-1.4c-0.1-0.4-0.3-1.1-1.4-2.1c-1-0.9-1.4-1.1-1.8-1.2c-0.4-0.1-1.1-0.2-1.4,0.3
	c-0.2,0.4-0.4,0.8-0.7,0.8c-0.4,0.1-0.8-0.2-1.1-0.5c-0.7-0.7-1.7-2.3-2.3-3.4C3.7,9.7,2.9,8,2.6,7.1c-0.1-0.5-0.1-1,0.1-1.2
	C3,5.6,3.4,5.7,3.8,5.7c0.6,0.1,0.9-0.6,1-1C4.9,4.3,5,3.9,4.7,2.6C4.4,1.1,4,0.5,3.7,0.3C3.3,0,3-0.2,2,0.3z"/>
</svg>
