<?xml version="1.0" encoding="utf-8"?>
<!-- Generator: Adobe Illustrator 24.3.0, SVG Export Plug-In . SVG Version: 6.00 Build 0)  -->
<svg version="1.1" id="レイヤー_1" xmlns="http://www.w3.org/2000/svg" xmlns:xlink="http://www.w3.org/1999/xlink" x="0px"
	 y="0px" viewBox="0 0 341.4 117" style="enable-background:new 0 0 341.4 117;" xml:space="preserve">
<style type="text/css">
	.st0{fill:#E09D31;}
</style>
<path class="st0" d="M319.3,115.4c-0.3-8.1-3-41.6-25-65.6c-15.3-16.8-36.6-25.4-63.3-25.6h-0.7c-25.6,0.1-49.8,11.5-66.1,31.2
	l-12.7,15.1l-17.4-9.1c-37.6-19.7-84-5.2-103.7,32.4c-3.6,6.8-6.1,14-7.5,21.6H0c7.1-49,49.1-85.4,98.6-85.5
	c16.1,0,31.9,3.9,46.1,11.4l1.2,0.6l0.9-1c20.8-25,51.7-39.4,84.2-39.4c110.4,0,110.4,112.6,110.4,113.9H319.3z"/>
</svg>
