<svg id="レイヤー_1" data-name="レイヤー 1" xmlns="http://www.w3.org/2000/svg" viewBox="0 0 341.36 175.4"><defs><style>.cls-1{fill:#e09d31;}</style></defs><path d="M115.65,406.39c.65,2.43,2.9,3.86,6.4,3.86,3,0,4.75-1,4.75-3.08,0-3.09-3.87-2.91-7.83-3.87-4.38-1.06-9.82-3.09-9.82-9.9,0-6.59,5-9.86,12.21-9.86,6.59,0,11.29,2.67,13.08,8.43l-7.37,2c-.78-2.35-2.62-3.64-5.85-3.64-3,0-4.19,1.15-4.19,2.86,0,2.72,3.09,3.13,7.6,4.05,4.75.92,10,2.95,10,9.9,0,6.63-4.65,9.95-12.52,9.95-5.62,0-12-1.7-13.82-8.71Z" transform="translate(-57.43 -241.66)"/><path d="M160.79,391.37v25.06h-7.74V391.37h-9.86v-7.19h27.45v7.19Z" transform="translate(-57.43 -241.66)"/><path d="M188.6,411.08l-1.93,5.35h-8.16L191,384.18h8.8l12.48,32.25h-8.29L202,411.08Zm8.57-13.44c-1-2.68-1.75-4.7-1.8-4.75h-.14c0,.05-.78,2-1.79,4.7l-2.3,6.45h8.33Z" transform="translate(-57.43 -241.66)"/><path d="M237.7,391.37v25.06H230V391.37H220.1v-7.19h27.45v7.19Z" transform="translate(-57.43 -241.66)"/><path d="M257.41,384.18h7.73v32.25h-7.73Z" transform="translate(-57.43 -241.66)"/><path d="M291.85,383.54c9.86,0,17,6.91,17,16.77s-7.14,16.76-17,16.76-17-6.91-17-16.76S282,383.54,291.85,383.54Zm0,26.21c5.34,0,9.22-3.69,9.22-9.44s-3.88-9.49-9.22-9.49-9.21,3.68-9.21,9.49S286.51,409.75,291.85,409.75Z" transform="translate(-57.43 -241.66)"/><path d="M326.35,397.17h-.14c0,.05.09,4,.09,8.2v11.06h-7.73V384.18h7.83l13.72,18.89h.14c0-.05-.05-4.19-.05-7.69v-11.2H348v32.25h-7.88Z" transform="translate(-57.43 -241.66)"/><path d="M121.36,341.57c-5,12.44-16.67,20-30.58,20-19.07,0-33.35-13.45-33.35-33.62,0-19.81,14.28-33.35,33.35-33.35,14.92,0,25.61,8.11,29.85,18.24l-12.72,3.5c-2.94-5-8.56-9.67-17.68-9.67-11.89,0-19.9,8.47-19.9,21.37,0,13.17,8.47,21.46,19.81,21.46,9.11,0,15.56-4.79,18.6-11.24Z" transform="translate(-57.43 -241.66)"/><path d="M222.31,293.4c19.44,0,33.81,13.63,33.81,33.52s-14.37,33.44-33.81,33.44-33.81-13.63-33.81-33.44S202.88,293.4,222.31,293.4Zm0,54.89c11.88,0,20.91-8.19,20.91-21.37s-9-21.46-20.91-21.46-20.91,8.29-20.91,21.46S210.43,348.29,222.31,348.29Z" transform="translate(-57.43 -241.66)"/><path d="M364.81,295.88c19.43,0,34,12.9,34,32.52s-14.65,32-33.81,32H339V295.88Zm-.55,52.6c11.23,0,21.64-6,21.64-20.08s-10.41-20.64-21.83-20.64H351.82v40.72Z" transform="translate(-57.43 -241.66)"/><path class="cls-1" d="M310.72,304.48c-.18-4.45-1.68-22.92-13.81-36.17-8.46-9.24-20.2-14-34.9-14.1h-.37a47.55,47.55,0,0,0-36.46,17.23l-7,8.31-9.6-5a42.38,42.38,0,0,0-61.33,29.76H134.62A55.05,55.05,0,0,1,189,257.34a54.47,54.47,0,0,1,25.45,6.26l.65.34.48-.56A60.45,60.45,0,0,1,262,241.66c60.87,0,60.91,62.09,60.87,62.82Z" transform="translate(-57.43 -241.66)"/><polygon points="89.99 106.81 89.99 69.29 77.19 69.29 77.19 118.7 120.58 118.7 120.58 106.81 89.99 106.81"/><path d="M310.74,311V331.9c0,12.07-4.79,17.59-14.46,17.59S281.81,344,281.81,331.9v-36h-13v36.39c0,19,10.41,29.29,27.36,29.29,16.76,0,27.26-10.32,27.26-29.29V311Z" transform="translate(-57.43 -241.66)"/></svg>