<?xml version="1.0" encoding="utf-8"?>
<!-- Generator: Adobe Illustrator 25.4.6, SVG Export Plug-In . SVG Version: 6.00 Build 0)  -->
<svg version="1.1" id="レイヤー_1" xmlns="http://www.w3.org/2000/svg" xmlns:xlink="http://www.w3.org/1999/xlink" x="0px"
	 y="0px" viewBox="0 0 73 73" style="enable-background:new 0 0 73 73;" xml:space="preserve">
<style type="text/css">
	.st0{fill:#F9B707;}
	.st1{fill:none;stroke:#FFFFFF;stroke-width:2;stroke-linecap:round;stroke-miterlimit:10;}
	.st2{fill:none;}
	.st3{enable-background:new    ;}
	.st4{fill:#FFFFFF;}
	.st5{fill:none;stroke:#F9B707;stroke-miterlimit:10;}
</style>
<circle class="st0" cx="36.2" cy="36.7" r="32.4"/>
<path class="st1" d="M26,33.7l10.7-13.1l12.8,12.8"/>
<path class="st2" d="M50.4,54.8H25.6l-1-11.3h24.8L50.4,54.8z"/>
<g class="st3">
	<path class="st4" d="M28.7,54.1v-7.6h-2.8v-1h6.8v1h-2.8v7.6H28.7z"/>
	<path class="st4" d="M33.3,49.9c0-1.4,0.4-2.5,1.1-3.3s1.8-1.2,3-1.2c0.8,0,1.5,0.2,2.1,0.6s1.1,0.9,1.5,1.6s0.5,1.4,0.5,2.3
		c0,0.9-0.2,1.7-0.5,2.3s-0.8,1.2-1.5,1.6s-1.3,0.5-2.1,0.5c-0.8,0-1.5-0.2-2.2-0.6s-1.1-0.9-1.4-1.6S33.3,50.7,33.3,49.9z
		 M34.4,49.9c0,1,0.3,1.9,0.8,2.4s1.3,0.9,2.1,0.9c0.9,0,1.6-0.3,2.1-0.9s0.8-1.5,0.8-2.6c0-0.7-0.1-1.3-0.4-1.8s-0.6-0.9-1-1.2
		s-1-0.4-1.5-0.4c-0.8,0-1.5,0.3-2.1,0.8S34.4,48.6,34.4,49.9z"/>
	<path class="st4" d="M43,54.1v-8.6h3.2c0.6,0,1,0,1.3,0.1c0.4,0.1,0.8,0.2,1.1,0.4s0.5,0.5,0.7,0.8s0.3,0.7,0.3,1.2
		c0,0.7-0.2,1.3-0.7,1.9s-1.3,0.8-2.5,0.8h-2.2v3.5H43z M44.1,49.6h2.2c0.7,0,1.3-0.1,1.6-0.4s0.5-0.7,0.5-1.2
		c0-0.4-0.1-0.7-0.3-0.9s-0.4-0.4-0.7-0.5c-0.2-0.1-0.5-0.1-1.1-0.1h-2.2V49.6z"/>
</g>
<circle id="レイヤー_2_00000169549370150585830320000008140706900997238968_" class="st5" cx="36.2" cy="36.7" r="35.7"/>
</svg>
