<svg id="レイヤー_1" data-name="レイヤー 1" xmlns="http://www.w3.org/2000/svg" viewBox="0 0 300 106.08"><defs><style>.cls-1{fill:#040000;}.cls-2{fill:#cd151c;}</style></defs><path class="cls-1" d="M184.43,254.4v-56h40.68v9.74H195.8v11.93h26.79v9.58H195.8v14.41h30.68V254.4Z" transform="translate(-100 -196.96)"/><path class="cls-1" d="M311.24,235.16q-.64,9.56-7.35,15.17T286.38,256q-12.42,0-19.33-7.76t-6.9-21.74q0-14.29,7-21.9t20.23-7.6q10.72,0,16.93,5.23T311.17,217H299.8a10.86,10.86,0,0,0-3.88-7.25q-3.15-2.49-8.51-2.49-7.61,0-11.56,4.91t-4,14.33q0,9.12,3.93,14.1t11.2,5a13.3,13.3,0,0,0,8.59-2.68,12.49,12.49,0,0,0,4.33-7.7Z" transform="translate(-100 -196.96)"/><path class="cls-1" d="M345.26,226.46q0-13.58,7.39-21.54t20-8q12.54,0,20,8T400,226.46Q400,240,392.57,248t-20,8q-12.56,0-20-8T345.26,226.46Zm11.75,0q0,9.24,4.1,14.35c2.74,3.41,6.56,5.11,11.49,5.11s8.83-1.7,11.59-5.11,4.14-8.19,4.14-14.35-1.38-10.94-4.14-14.35S377.56,207,372.6,207s-8.75,1.69-11.49,5.09S357,220.27,357,226.46Z" transform="translate(-100 -196.96)"/><path class="cls-1" d="M145.26,302.27V274.59h11.82c4.1,0,7.23,1.19,9.42,3.58s3.28,5.82,3.28,10.29q0,6.93-3.39,10.37t-10.23,3.44Zm7.12-5.81h3.85a5.77,5.77,0,0,0,4.82-1.93q1.53-1.93,1.53-6.07t-1.53-6.08a5.8,5.8,0,0,0-4.82-1.92h-3.85Z" transform="translate(-100 -196.96)"/><path class="cls-1" d="M187.56,302.27V274.59h21v5.68H194.64v4.88h12.75v5.55H194.64v5.92H209v5.65Z" transform="translate(-100 -196.96)"/><path class="cls-1" d="M225.4,293.08h6.8a4.8,4.8,0,0,0,1.4,3.56,5.52,5.52,0,0,0,3.85,1.2,6.45,6.45,0,0,0,3.34-.72,2.22,2.22,0,0,0,1.19-2,2.47,2.47,0,0,0-.28-1.17,1.86,1.86,0,0,0-.79-.78,25.63,25.63,0,0,0-3.78-1.3q-3-.89-5.07-1.71a10.58,10.58,0,0,1-4.54-3.13,7,7,0,0,1-1.55-4.53,7.59,7.59,0,0,1,3-6.31q3-2.34,8.07-2.34A12,12,0,0,1,245,276.3a8.25,8.25,0,0,1,2.93,6.65h-6.67a4.11,4.11,0,0,0-1.36-2.85,5.1,5.1,0,0,0-3.29-.92,5,5,0,0,0-2.78.7,2.1,2.1,0,0,0-1.07,1.79c0,1.24,1.7,2.39,5.09,3.48l1.41.45.28.1c3.51,1.14,5.71,2.06,6.58,2.76a7.15,7.15,0,0,1,2,2.57,8.08,8.08,0,0,1-2.47,9.71c-2.11,1.54-5.07,2.3-8.88,2.3q-5.38,0-8.21-2.47C226.66,298.92,225.61,296.43,225.4,293.08Z" transform="translate(-100 -196.96)"/><path class="cls-1" d="M266.63,302.27V274.59h7.07v27.68Z" transform="translate(-100 -196.96)"/><path class="cls-1" d="M313.61,302.27l-.56-3.57a9.94,9.94,0,0,1-3.72,3.24,11.18,11.18,0,0,1-5,1.07,12.49,12.49,0,0,1-5-1,11.63,11.63,0,0,1-4-2.88,13.11,13.11,0,0,1-2.76-4.6,17.4,17.4,0,0,1-.94-5.79q0-6.78,3.88-10.88a13.59,13.59,0,0,1,10.33-4.1,12.82,12.82,0,0,1,8,2.44,10.91,10.91,0,0,1,4,6.85h-6.79a5.33,5.33,0,0,0-2.07-2.7,6,6,0,0,0-3.4-.91,5.89,5.89,0,0,0-4.92,2.48,10.6,10.6,0,0,0-1.88,6.56,10.12,10.12,0,0,0,1.85,6.4,6,6,0,0,0,5,2.37,6.5,6.5,0,0,0,4.11-1.26,5.42,5.42,0,0,0,2-3.51h-6.16v-5.32h12.48v15.09Z" transform="translate(-100 -196.96)"/><path class="cls-1" d="M336.63,302.27V274.59h7.67l5.22,9.09q1.28,2.22,2.43,4.4c.76,1.46,1.48,2.89,2.16,4.31-.11-2.1-.18-4.06-.23-5.88s-.08-3.44-.08-4.84v-7.08h6.84v27.68H353l-5.43-9.36c-.65-1.1-1.34-2.34-2.09-3.71s-1.55-2.85-2.39-4.44c.14,1.8.24,3.48.3,5s.1,2.94.1,4.14v8.34Z" transform="translate(-100 -196.96)"/><rect class="cls-1" x="100.44" y="203.85" width="55.55" height="10" transform="translate(-139.16 -167.12) rotate(-11.53)"/><polygon class="cls-2" points="12.05 57.44 28.22 29.44 44.38 57.44 12.05 57.44"/></svg>